<svg xmlns="http://www.w3.org/2000/svg" width="15" height="15" viewBox="0 0 74 73" fill="none">
  <path fill-rule="evenodd" clip-rule="evenodd" d="M33.9165 6.08325C29.8277 6.08325 25.9065 7.68555 23.0153 10.5377C20.1241 13.3898 18.4998 17.2581 18.4998 21.2916C18.4998 25.3251 20.1241 29.1934 23.0153 32.0455C25.9065 34.8976 29.8277 36.4999 33.9165 36.4999C38.0053 36.4999 41.9265 34.8976 44.8177 32.0455C47.7089 29.1934 49.3332 25.3251 49.3332 21.2916C49.3332 17.2581 47.7089 13.3898 44.8177 10.5377C41.9265 7.68555 38.0053 6.08325 33.9165 6.08325ZM24.6665 21.2916C24.6665 20.0933 24.9058 18.9067 25.3706 17.7996C25.8355 16.6925 26.5168 15.6866 27.3758 14.8392C28.2347 13.9919 29.2544 13.3198 30.3767 12.8612C31.4989 12.4026 32.7018 12.1666 33.9165 12.1666C35.1312 12.1666 36.3341 12.4026 37.4563 12.8612C38.5786 13.3198 39.5983 13.9919 40.4572 14.8392C41.3162 15.6866 41.9975 16.6925 42.4624 17.7996C42.9272 18.9067 43.1665 20.0933 43.1665 21.2916C43.1665 23.7117 42.192 26.0327 40.4572 27.7439C38.7225 29.4552 36.3698 30.4166 33.9165 30.4166C31.4633 30.4166 29.1105 29.4552 27.3758 27.7439C25.6411 26.0327 24.6665 23.7117 24.6665 21.2916ZM12.3332 56.2707C12.3332 55.7232 12.6107 54.7834 13.6066 53.5363C14.5809 52.3196 16.0856 51.0178 18.0805 49.8194C22.0673 47.4165 27.6789 45.6249 33.9165 45.6249C35.0728 45.6249 36.2105 45.6857 37.3236 45.8044C38.1372 45.8895 38.9519 45.6522 39.5882 45.1449C40.2246 44.6375 40.6305 43.9015 40.7168 43.0988C40.8031 42.2961 40.5626 41.4925 40.0482 40.8648C39.5339 40.237 38.7878 39.8366 37.9742 39.7515C36.6261 39.6134 35.2718 39.5433 33.9165 39.5416C26.5319 39.5416 19.8103 41.6525 14.8677 44.6242C12.401 46.1146 10.292 47.8636 8.76884 49.7646C7.27034 51.6383 6.1665 53.877 6.1665 56.2707C6.1665 58.841 7.43375 60.8667 9.25909 62.3115C10.9858 63.6802 13.2643 64.5867 15.6848 65.2193C20.5503 66.4877 27.0438 66.9166 33.9165 66.9166L36.0286 66.9014C36.4335 66.896 36.8334 66.812 37.2054 66.6541C37.5774 66.4963 37.9142 66.2677 38.1966 65.9815C38.4791 65.6952 38.7016 65.3569 38.8515 64.9858C39.0014 64.6147 39.0758 64.2181 39.0703 63.8186C39.0648 63.4192 38.9797 63.0247 38.8197 62.6578C38.6597 62.2908 38.428 61.9585 38.1378 61.6799C37.8476 61.4013 37.5046 61.1817 37.1284 61.0339C36.7523 60.886 36.3502 60.8127 35.9453 60.818L33.9165 60.8332C27.164 60.8332 21.3273 60.3983 17.2665 59.3367C15.2223 58.8045 13.8872 58.1748 13.1194 57.5665C12.4473 57.0342 12.3332 56.6418 12.3332 56.2707ZM52.4165 63.8749C52.4166 63.1299 52.6939 62.4109 53.1957 61.8541C53.6976 61.2974 54.3891 60.9417 55.1391 60.8545L55.506 60.8332C56.2919 60.8341 57.0478 61.131 57.6192 61.6632C58.1907 62.1954 58.5346 62.9227 58.5806 63.6967C58.6267 64.4706 58.3714 65.2327 57.867 65.8272C57.3626 66.4217 56.6471 66.8037 55.8668 66.8953L55.4998 66.9166C54.6821 66.9166 53.8978 66.5961 53.3196 66.0257C52.7414 65.4553 52.4165 64.6816 52.4165 63.8749ZM54.1647 49.427C54.3344 49.1371 54.5964 48.9105 54.9099 48.7824C55.2234 48.6543 55.5711 48.6318 55.8989 48.7185C56.2267 48.8051 56.5163 48.996 56.7229 49.2616C56.9295 49.5272 57.0415 49.8526 57.0415 50.1874C57.0415 50.598 56.8935 50.963 56.0518 51.6474L55.6047 51.9942L55.2655 52.2436C55.0373 52.4109 54.766 52.6086 54.5163 52.8093L54.0877 53.1622C53.4121 53.7316 52.8943 54.4611 52.583 55.2822C52.3307 56.0091 52.3666 56.8033 52.6835 57.5051C53.0004 58.207 53.5748 58.7645 54.2913 59.0657C55.0078 59.3669 55.8133 59.3895 56.5459 59.1289C57.2786 58.8683 57.8842 58.3438 58.2409 57.6608L58.54 57.4266L59.6408 56.6053L59.9707 56.3438L60.5288 55.8632C61.7806 54.7256 63.2082 52.9188 63.2082 50.1874C63.2093 48.5146 62.6513 46.8881 61.6205 45.5599C60.5898 44.2316 59.1438 43.2757 57.5065 42.8402C55.8693 42.4048 54.1322 42.514 52.5643 43.1511C50.9963 43.7881 49.6851 44.9174 48.8337 46.364C48.4219 47.0614 48.3079 47.8916 48.5166 48.672C48.7254 49.4523 49.2398 50.1189 49.9468 50.525C50.6537 50.9312 51.4953 51.0437 52.2863 50.8378C53.0773 50.6319 53.753 50.1244 54.1647 49.427Z" fill="white" fill-opacity="0.9"/>
</svg>