<svg width="18" height="15" viewBox="0 0 18 18" fill="none" xmlns="http://www.w3.org/2000/svg">
<path fill-rule="evenodd" clip-rule="evenodd" d="M3.55052 0.621848C2.77535 -0.165379 1.47635 -0.211335 0.649122 0.519202C-0.178108 1.24974 -0.220313 2.48013 0.554854 3.26736L14.4495 17.3782C15.2246 18.1654 16.5236 18.2113 17.3509 17.4808C18.1781 16.7503 18.2203 15.5199 17.4451 14.7326L3.55052 0.621848ZM4.2793 3.36791C4.08551 3.17111 3.76076 3.15962 3.55395 3.34225C3.34715 3.52489 3.33659 3.83248 3.53039 4.02929L13.6356 14.2917C13.8294 14.4885 14.1541 14.5 14.3609 14.3173C14.5677 14.1347 14.5783 13.8271 14.3845 13.6303L4.2793 3.36791Z" fill="url(#paint0_linear_819_52)"/>
<path d="M14.8933 0.0817582C14.9227 -0.0272525 15.0773 -0.0272528 15.1067 0.0817579L15.6866 2.23547C15.6968 2.2735 15.7265 2.3032 15.7645 2.31343L17.9182 2.89332C18.0273 2.92267 18.0273 3.07733 17.9182 3.10668L15.7645 3.68657C15.7265 3.6968 15.6968 3.7265 15.6866 3.76453L15.1067 5.91824C15.0773 6.02725 14.9227 6.02725 14.8933 5.91824L14.3134 3.76453C14.3032 3.7265 14.2735 3.6968 14.2355 3.68657L12.0818 3.10668C11.9727 3.07733 11.9727 2.92267 12.0818 2.89332L14.2355 2.31343C14.2735 2.3032 14.3032 2.2735 14.3134 2.23547L14.8933 0.0817582Z" fill="url(#paint1_linear_819_52)"/>
<path d="M2.89332 12.0818C2.92267 11.9727 3.07733 11.9727 3.10668 12.0818L3.68657 14.2355C3.6968 14.2735 3.7265 14.3032 3.76453 14.3134L5.91824 14.8933C6.02725 14.9227 6.02725 15.0773 5.91824 15.1067L3.76453 15.6866C3.7265 15.6968 3.6968 15.7265 3.68657 15.7645L3.10668 17.9182C3.07733 18.0273 2.92267 18.0273 2.89332 17.9182L2.31343 15.7645C2.3032 15.7265 2.2735 15.6968 2.23547 15.6866L0.0817582 15.1067C-0.0272525 15.0773 -0.0272528 14.9227 0.0817579 14.8933L2.23547 14.3134C2.2735 14.3032 2.3032 14.2735 2.31343 14.2355L2.89332 12.0818Z" fill="url(#paint2_linear_819_52)"/>
<defs>
<linearGradient id="paint0_linear_819_52" x1="0" y1="0" x2="19.2874" y2="20.6651" gradientUnits="userSpaceOnUse">
<stop stop-color="white"/>
<stop offset="1" stop-color="white" stop-opacity="0"/>
</linearGradient>
<linearGradient id="paint1_linear_819_52" x1="0" y1="0" x2="19.2874" y2="20.6651" gradientUnits="userSpaceOnUse">
<stop stop-color="white"/>
<stop offset="1" stop-color="white" stop-opacity="0"/>
</linearGradient>
<linearGradient id="paint2_linear_819_52" x1="0" y1="0" x2="19.2874" y2="20.6651" gradientUnits="userSpaceOnUse">
<stop stop-color="white"/>
<stop offset="1" stop-color="white" stop-opacity="0"/>
</linearGradient>
</defs>
</svg>
